<svg width="375" height="363" viewBox="0 0 375 363" fill="none" xmlns="http://www.w3.org/2000/svg">
<path d="M309.881 183.406C309.881 110.308 250.585 51.0511 177.44 51.0511C104.296 51.0511 45 110.308 45 183.406C45 256.503 104.296 315.76 177.44 315.76C250.585 315.76 309.881 256.503 309.881 183.406Z" fill="#7B4AE2" fill-opacity="0.2"/>
<g filter="url(#filter0_d_21_5377)">
<circle cx="312.18" cy="194.397" r="18.3945" fill="#090E16"/>
</g>
<g clip-path="url(#clip0_21_5377)">
<path fill-rule="evenodd" clip-rule="evenodd" d="M319.94 185.2H304.42C303.626 185.2 302.983 185.843 302.983 186.637V202.157C302.983 202.951 303.626 203.594 304.42 203.594H319.94C320.734 203.594 321.377 202.951 321.377 202.157V186.637C321.377 185.843 320.734 185.2 319.94 185.2ZM313.798 201.589V199.604C314.158 199.906 314.549 200.133 314.971 200.283C315.393 200.434 315.82 200.51 316.25 200.51C316.502 200.51 316.723 200.487 316.911 200.442C317.099 200.396 317.256 200.333 317.383 200.253C317.509 200.172 317.603 200.077 317.665 199.967C317.727 199.858 317.758 199.739 317.758 199.611C317.758 199.437 317.708 199.282 317.609 199.145C317.51 199.009 317.374 198.883 317.203 198.767C317.031 198.651 316.827 198.54 316.591 198.432C316.355 198.325 316.101 198.215 315.828 198.104C315.133 197.814 314.614 197.461 314.273 197.043C313.932 196.625 313.761 196.121 313.761 195.53C313.761 195.067 313.854 194.669 314.04 194.336C314.226 194.003 314.48 193.729 314.801 193.514C315.121 193.299 315.493 193.141 315.915 193.04C316.337 192.939 316.784 192.888 317.255 192.888C317.719 192.888 318.13 192.916 318.487 192.972C318.845 193.027 319.175 193.113 319.477 193.229V195.083C319.329 194.98 319.166 194.889 318.99 194.81C318.814 194.732 318.633 194.667 318.447 194.615C318.261 194.563 318.076 194.525 317.892 194.5C317.707 194.476 317.533 194.463 317.367 194.463C317.14 194.463 316.933 194.485 316.746 194.528C316.56 194.572 316.403 194.633 316.275 194.711C316.146 194.79 316.047 194.884 315.977 194.993C315.906 195.103 315.871 195.226 315.871 195.362C315.871 195.511 315.911 195.645 315.989 195.762C316.068 195.88 316.18 195.992 316.324 196.097C316.469 196.203 316.645 196.306 316.852 196.407C317.059 196.509 317.293 196.613 317.553 196.721C317.909 196.869 318.229 197.028 318.512 197.195C318.796 197.363 319.039 197.552 319.242 197.763C319.444 197.973 319.6 198.214 319.707 198.485C319.815 198.756 319.868 199.071 319.868 199.431C319.868 199.927 319.774 200.343 319.586 200.68C319.398 201.017 319.142 201.29 318.819 201.499C318.497 201.708 318.121 201.858 317.693 201.949C317.265 202.04 316.813 202.085 316.337 202.085C315.848 202.085 315.384 202.044 314.943 201.961C314.503 201.878 314.121 201.754 313.798 201.589ZM313.042 194.666H310.49V201.941H308.469V194.666H305.929V193.032H313.042V194.666Z" fill="#7B4AE2" fill-opacity="0.5"/>
</g>
<g filter="url(#filter1_d_21_5377)">
<circle cx="63.3945" cy="147.491" r="18.3945" fill="#090E16"/>
</g>
<path d="M70.2761 144.256C70.0616 144.182 69.8394 144.112 69.6106 144.046C69.6482 143.892 69.6827 143.741 69.7134 143.592C70.2172 141.146 69.8878 139.176 68.763 138.528C67.6844 137.906 65.9206 138.554 64.1391 140.105C63.9678 140.254 63.796 140.411 63.6243 140.577C63.5099 140.467 63.3957 140.362 63.2817 140.261C61.4147 138.603 59.5434 137.904 58.4197 138.555C57.3422 139.179 57.0231 141.031 57.4765 143.348C57.5203 143.572 57.5715 143.801 57.6294 144.033C57.3646 144.108 57.1089 144.188 56.8642 144.274C54.6754 145.037 53.2775 146.233 53.2775 147.473C53.2775 148.755 54.7781 150.04 57.058 150.819C57.2379 150.881 57.4246 150.939 57.617 150.994C57.5545 151.245 57.5002 151.492 57.4546 151.732C57.0222 154.009 57.3599 155.818 58.4345 156.438C59.5445 157.078 61.4075 156.42 63.2215 154.834C63.3648 154.709 63.5087 154.576 63.6529 154.436C63.8397 154.616 64.0263 154.787 64.2118 154.946C65.9689 156.458 67.7043 157.069 68.7779 156.447C69.8868 155.805 70.2472 153.863 69.7793 151.499C69.7436 151.319 69.702 151.134 69.6553 150.947C69.7862 150.908 69.9146 150.868 70.0398 150.827C72.41 150.041 73.952 148.772 73.952 147.473C73.952 146.228 72.5091 145.024 70.2761 144.256ZM69.7621 149.988C69.649 150.026 69.533 150.062 69.4148 150.097C69.1532 149.269 68.8 148.388 68.3679 147.478C68.7803 146.589 69.1197 145.72 69.3741 144.897C69.5856 144.958 69.7908 145.023 69.9886 145.091C71.9018 145.749 73.0688 146.723 73.0688 147.473C73.0688 148.273 71.8085 149.31 69.7621 149.988ZM68.9129 151.671C69.1198 152.716 69.1494 153.661 69.0123 154.4C68.8892 155.063 68.6416 155.506 68.3354 155.683C67.6838 156.06 66.2905 155.57 64.7878 154.277C64.6155 154.129 64.442 153.97 64.268 153.803C64.8505 153.166 65.4327 152.425 66.001 151.602C67.0004 151.514 67.9447 151.369 68.801 151.171C68.8432 151.341 68.8806 151.508 68.9129 151.671ZM60.3259 155.618C59.6893 155.843 59.1823 155.849 58.8758 155.672C58.2237 155.296 57.9526 153.844 58.3224 151.897C58.3648 151.674 58.4152 151.445 58.4733 151.21C59.3202 151.398 60.2576 151.532 61.2594 151.614C61.8315 152.419 62.4305 153.158 63.0342 153.806C62.9023 153.934 62.7709 154.055 62.6403 154.169C61.8381 154.87 61.0343 155.368 60.3259 155.618ZM57.3436 149.983C56.3355 149.639 55.503 149.191 54.9323 148.702C54.4195 148.263 54.1606 147.827 54.1606 147.473C54.1606 146.721 55.283 145.76 57.1549 145.108C57.3821 145.029 57.6198 144.954 57.8666 144.884C58.1253 145.725 58.4647 146.605 58.8742 147.495C58.4594 148.398 58.1152 149.292 57.8539 150.143C57.678 150.093 57.5076 150.039 57.3436 149.983ZM58.3433 143.179C57.9548 141.193 58.2128 139.695 58.8622 139.319C59.5538 138.919 61.0833 139.49 62.6953 140.921C62.7983 141.012 62.9018 141.108 63.0055 141.207C62.4048 141.852 61.8113 142.587 61.2443 143.387C60.2719 143.477 59.3412 143.622 58.4854 143.816C58.4316 143.599 58.384 143.386 58.3433 143.179ZM67.2614 145.381C67.0568 145.027 66.8468 144.682 66.6327 144.347C67.2923 144.43 67.9243 144.541 68.5179 144.676C68.3397 145.247 68.1176 145.844 67.8562 146.457C67.6686 146.101 67.4703 145.742 67.2614 145.381ZM63.6246 141.838C64.032 142.28 64.44 142.773 64.8412 143.307C64.4369 143.288 64.0275 143.278 63.6148 143.278C63.2059 143.278 62.7996 143.288 62.3977 143.307C62.7994 142.777 63.2109 142.285 63.6246 141.838ZM59.9646 145.387C59.7602 145.741 59.5655 146.098 59.3809 146.456C59.1237 145.846 58.9037 145.246 58.724 144.667C59.3138 144.535 59.9429 144.427 60.5983 144.345C60.3812 144.684 60.1695 145.031 59.9646 145.387V145.387ZM60.6172 150.665C59.94 150.589 59.3015 150.487 58.7118 150.358C58.8944 149.769 59.1193 149.156 59.3819 148.533C59.567 148.891 59.7624 149.248 59.968 149.603H59.9681C60.1775 149.965 60.3945 150.319 60.6172 150.665ZM63.6491 153.171C63.2304 152.719 62.8129 152.219 62.4051 151.682C62.801 151.698 63.2046 151.705 63.6148 151.705C64.0362 151.705 64.4527 151.696 64.8628 151.678C64.4602 152.225 64.0537 152.725 63.6491 153.171ZM67.8646 148.501C68.1409 149.131 68.3739 149.741 68.5588 150.32C67.9594 150.457 67.3122 150.567 66.6303 150.649C66.8449 150.309 67.0567 149.958 67.2649 149.597C67.4755 149.232 67.6755 148.866 67.8646 148.501ZM66.4999 149.156C66.1767 149.716 65.8449 150.251 65.5081 150.756C64.8946 150.8 64.2607 150.822 63.6148 150.822C62.9714 150.822 62.3455 150.802 61.7429 150.763C61.3925 150.252 61.0535 149.715 60.7324 149.16H60.7324C60.4122 148.607 60.1174 148.049 59.8503 147.495C60.1173 146.939 60.4113 146.38 60.7297 145.828L60.7297 145.828C61.049 145.274 61.385 144.74 61.7322 144.232C62.347 144.186 62.9775 144.161 63.6147 144.161H63.6148C64.2548 144.161 64.8861 144.186 65.5008 144.233C65.8427 144.737 66.1764 145.27 66.497 145.823C66.8211 146.383 67.1189 146.938 67.3882 147.482C67.1197 148.036 66.8226 148.596 66.4999 149.156ZM68.3218 139.293C69.0142 139.692 69.2834 141.302 68.8484 143.414C68.8207 143.548 68.7894 143.686 68.7555 143.825C67.8977 143.627 66.9663 143.48 65.9911 143.388C65.4231 142.579 64.8344 141.844 64.2435 141.207C64.4023 141.054 64.561 140.908 64.719 140.771C66.2453 139.442 67.6719 138.918 68.3218 139.293ZM63.6148 145.627C64.6343 145.627 65.4609 146.454 65.4609 147.473C65.4609 148.493 64.6343 149.32 63.6148 149.32C62.5952 149.32 61.7686 148.493 61.7686 147.473C61.7686 146.454 62.5952 145.627 63.6148 145.627Z" fill="#7B4AE2" fill-opacity="0.5"/>
<g filter="url(#filter2_d_21_5377)">
<circle cx="63.3945" cy="265.216" r="18.3945" fill="#090E16"/>
</g>
<g clip-path="url(#clip1_21_5377)">
<path fill-rule="evenodd" clip-rule="evenodd" d="M60.3527 256.018C58.6604 256.018 57.287 257.392 57.287 259.084C57.287 260.776 58.6604 262.15 60.3527 262.15C58.6604 262.15 57.287 263.523 57.287 265.216C57.287 266.908 58.6604 268.281 60.3527 268.281C58.6604 268.281 57.287 269.655 57.287 271.347C57.287 273.039 58.6604 274.413 60.3527 274.413C62.045 274.413 63.4185 273.039 63.4185 271.347L63.4185 265.216C63.4185 266.908 64.7919 268.281 66.4842 268.281C68.1765 268.281 69.55 266.908 69.55 265.216C69.55 263.523 68.1765 262.15 66.4842 262.15C68.1765 262.15 69.55 260.776 69.55 259.084C69.55 257.392 68.1765 256.018 66.4842 256.018H60.3527ZM66.4842 262.15H63.4185L63.4185 265.216C63.4185 263.523 64.7919 262.15 66.4842 262.15Z" fill="#7B4AE2" fill-opacity="0.5"/>
</g>
<g filter="url(#filter3_f_21_5377)">
<circle cx="178.36" cy="181.061" r="131.061" fill="#7B4AE2" fill-opacity="0.2"/>
</g>
<g filter="url(#filter4_i_21_5377)">
<path fill-rule="evenodd" clip-rule="evenodd" d="M154.224 232.077C173.104 242.14 194.275 241.022 210.863 232.076V254.122L211.051 254.117V267.061H154.224V232.077Z" fill="#BB7D52"/>
<path fill-rule="evenodd" clip-rule="evenodd" d="M154.223 250.446C173.103 260.51 194.275 259.392 210.863 250.446V264.505L223.619 264.187L223.778 264.193C223.778 298.08 142.764 303.152 142.764 264.142L143.08 264.128L154.223 264.184V250.446Z" fill="#D08B5B"/>
<path fill-rule="evenodd" clip-rule="evenodd" d="M121.057 111.177C166.113 82.4888 223.754 92.6905 243.228 111.608C248.859 125.156 249.257 138.225 247.6 152.253C251.404 149.523 255.927 150.148 259.491 152.69C260.935 164.33 264.802 187.357 247.471 188.356C241.505 262.635 132.179 271.881 117.401 188.599C100.224 188.006 104.856 164.735 105.929 153.559C110.05 150.424 114.756 152.002 117.677 153.404L121.057 111.177Z" fill="#D08B5B"/>
<path fill-rule="evenodd" clip-rule="evenodd" d="M114.365 142.634C114.601 143.284 113.832 143.934 111.525 145.117C106.75 147.501 106.332 147.997 106.32 151.733V151.914C106.32 156.938 107.089 158.237 110.401 158.711C113.773 159.184 115.903 159.952 116.495 160.898C116.731 161.311 116.968 163.203 116.968 165.153C116.968 169.35 118.269 175.261 119.867 178.334C124.362 187.082 136.075 191.515 150.272 189.86C157.253 188.973 161.335 187.614 165.771 184.658C172.397 180.226 175.473 174.551 175.946 165.626C176.301 160.188 176.301 160.188 178.076 159.597C180.383 158.77 186.121 158.77 188.487 159.597C190.321 160.247 190.321 160.247 190.321 164.444C190.321 169.291 191.563 175.083 193.219 178.335C197.715 187.082 209.428 191.515 223.566 189.86C230.606 188.973 234.688 187.614 239.125 184.659C245.75 180.226 248.826 174.374 249.418 165.213C249.832 159.184 249.536 159.479 256.043 158.652C259.356 158.238 260.125 156.938 260.125 151.855C260.125 147.835 259.474 147.067 253.973 144.703L250.659 143.284L245.513 141.689L241.727 140.861C239.657 140.448 236.995 140.092 235.871 140.033C234.688 140.033 231.73 138.969 228.772 137.492C223.862 135.068 223.626 135.009 217.828 135.009C211.203 135.009 206.53 136.369 202.743 139.324C201.62 140.211 199.253 141.334 197.597 141.747C195.881 142.162 192.687 143.284 190.498 144.23C184.76 146.654 181.803 146.535 174.467 143.58C171.273 142.28 168.256 141.215 167.842 141.215C167.427 141.215 166.067 140.388 164.825 139.384C160.921 136.31 156.543 135.009 149.799 135.009C144.061 135.009 143.706 135.128 138.619 137.551C135.188 139.206 132.526 140.033 130.928 140.033C129.627 140.092 126.787 140.448 124.658 140.92L114.365 142.634ZM161.689 150.259C168.787 152.564 170.976 155.696 171.035 163.617C171.095 167.813 170.859 169.173 169.734 171.478C165.83 179.457 154.709 183.95 141.517 182.944C131.401 182.117 126.196 179.28 123.416 173.015C121.641 168.936 121.404 159.184 123.06 156.169C124.599 153.332 127.557 151.382 132.407 150.081C136.193 149.077 138.264 148.958 147.728 149.077C155.892 149.254 159.441 149.549 161.689 150.259ZM235.042 150.259C242.141 152.564 244.33 155.696 244.389 163.617C244.448 167.813 244.211 169.173 243.088 171.478C239.183 179.457 228.062 183.95 214.87 182.944C204.755 182.117 199.549 179.28 196.768 173.015C194.993 168.936 194.757 159.184 196.414 156.169C197.952 153.332 200.909 151.382 205.76 150.081C209.546 149.077 211.616 148.958 221.081 149.077C229.245 149.254 232.794 149.549 235.042 150.259Z" fill="#A66F49"/>
<path fill-rule="evenodd" clip-rule="evenodd" d="M167.368 53.4018L163.641 55.8253L161.748 53.9929C158.79 51.0968 157.371 51.6288 155.123 56.4164C153.762 59.3716 152.047 59.7265 149.089 57.7757C147.906 56.9484 146.427 56.239 145.836 56.239C144.534 56.239 143.292 58.2485 142.759 60.9083C142.345 63.0953 140.926 65.1049 139.742 65.1049C139.329 65.1049 137.79 64.5729 136.312 63.9227C134.063 62.9179 133.353 62.8587 132.111 63.3907C130.692 64.041 130.573 64.3955 130.573 68.2966C130.573 71.1339 130.159 73.3208 129.39 74.9759C128.266 77.4582 128.207 77.5174 125.427 77.5174C120.813 77.5174 118.624 79.8223 120.872 82.3642C122.055 83.6052 121.286 84.9057 118.979 85.4376C114.719 86.5015 113.477 89.2205 115.784 92.1165C117.382 94.1852 117.322 94.4809 114.779 95.6631C112.117 96.9633 111.703 98.4412 113.418 100.273C114.719 101.692 114.719 101.751 114.01 109.553C113.3 117.119 113.536 138.22 114.365 140.407C114.601 141.057 113.832 141.707 111.525 142.89C106.674 145.313 106.32 145.786 106.32 149.687C106.32 154.711 107.089 156.011 110.401 156.484C113.773 156.957 115.903 157.725 116.495 158.671C116.731 159.085 116.968 160.976 116.968 162.927C116.968 167.123 118.269 173.034 119.866 176.107C124.362 184.855 136.075 189.288 150.273 187.633C157.253 186.746 161.335 185.387 165.771 182.432C172.397 177.999 175.473 172.324 175.946 163.399C176.301 157.962 176.301 157.962 178.076 157.371C180.383 156.543 186.121 156.543 188.487 157.371C190.321 158.021 190.321 158.021 190.321 162.218C190.321 167.064 191.563 172.857 193.22 176.108C197.716 184.856 209.428 189.288 223.566 187.634C230.606 186.747 234.688 185.388 239.125 182.432C245.75 177.999 248.826 172.148 249.418 162.986C249.832 156.957 249.536 157.253 256.043 156.425C259.356 156.011 260.125 154.711 260.125 149.628C260.125 145.609 259.474 144.84 253.973 142.476L250.66 141.057V135.147C250.601 125.04 249.181 117.888 246.696 115.583C245.868 114.814 244.034 113.632 242.556 112.923C240.248 111.8 239.775 111.741 239.065 112.509C238.356 113.218 238.533 113.869 240.308 117.415C242.496 121.789 244.448 129.177 245.099 135.561L245.513 139.462L241.727 138.634C239.657 138.221 236.995 137.866 235.871 137.807C234.688 137.807 231.73 136.743 228.772 135.265C223.862 132.842 223.626 132.783 217.828 132.783C211.203 132.783 206.529 134.142 202.744 137.097C201.62 137.984 199.253 139.107 197.597 139.521C195.882 139.935 192.687 141.058 190.498 142.003C184.76 144.427 181.803 144.309 174.467 141.353C171.273 140.053 168.256 138.989 167.842 138.989C167.428 138.989 166.067 138.161 164.825 137.157C160.921 134.083 156.543 132.783 149.799 132.783C144.061 132.783 143.706 132.901 138.619 135.324C135.187 136.979 132.526 137.807 130.928 137.807C129.627 137.866 126.788 138.221 124.658 138.693C118.624 139.994 119.097 140.762 119.57 130.832C119.925 122.321 121.049 115.11 122.351 112.627C123.83 109.849 135.543 103.879 147.137 99.9786C161.512 95.191 177.661 93.3585 195.882 94.5999C211.499 95.6047 215.64 96.9048 232.913 106.185C238.947 109.436 244.567 112.036 245.868 112.214C247.998 112.509 248.175 112.391 248.826 110.617C250.246 106.539 249.122 96.2546 246.755 91.5852C244.981 88.1572 244.863 86.8567 245.868 83.3105C246.578 80.8278 246.578 80.2958 245.691 78.9956C244.863 77.7543 244.271 77.518 241.905 77.518C240.367 77.5772 238.001 77.8134 236.64 78.05C234.215 78.5228 234.155 78.5228 234.451 76.9861C235.634 71.1937 234.215 69.8932 228.476 71.3708C226.643 71.8436 224.927 72.1393 224.809 71.9619C224.631 71.7848 224.809 70.0115 225.223 68.0611C225.932 64.8693 225.874 64.3373 225.045 63.4505C224.158 62.6232 223.626 62.6232 220.194 63.2734C214.693 64.3965 212.622 63.8645 210.611 60.7907C208.541 57.7764 206.648 56.7125 204.696 57.4807C203.631 57.8944 202.507 57.7173 200.377 56.7716C198.129 55.826 196.828 55.5894 194.817 55.8848C192.746 56.2397 191.622 56.0031 189.67 54.9983C187.659 53.9935 186.535 53.8161 184.109 54.1115C181.507 54.4072 180.56 54.1706 177.543 52.693C175.65 51.7474 173.402 50.9789 172.574 50.9197C171.746 50.9197 169.439 52.0428 167.368 53.4024L167.368 53.4018ZM161.689 148.032C168.788 150.337 170.977 153.47 171.036 161.39C171.095 165.586 170.858 166.946 169.734 169.251C165.83 177.23 154.709 181.723 141.517 180.718C131.401 179.89 126.196 177.053 123.416 170.788C121.641 166.709 121.404 156.957 123.06 153.942C124.599 151.105 127.556 149.155 132.407 147.854C136.193 146.85 138.264 146.731 147.728 146.85C155.892 147.027 159.441 147.322 161.689 148.032ZM235.042 148.032C242.141 150.337 244.33 153.47 244.389 161.39C244.448 165.586 244.211 166.946 243.088 169.251C239.183 177.23 228.062 181.723 214.87 180.718C204.755 179.89 199.549 177.053 196.769 170.788C194.994 166.709 194.757 156.957 196.414 153.942C197.952 151.105 200.909 149.155 205.76 147.854C209.546 146.85 211.617 146.731 221.081 146.85C229.245 147.027 232.794 147.322 235.042 148.032Z" fill="#2C1B18"/>
<path fill-rule="evenodd" clip-rule="evenodd" d="M142.641 155.184C139.506 156.661 135.897 160.385 135.897 162.158C135.897 163.518 136.844 163.518 138.678 162.04C143.469 158.257 153.644 158.257 158.85 161.981C159.855 162.631 160.92 163.222 161.275 163.222C162.517 163.222 161.926 161.094 160.033 158.848C157.548 155.775 153.112 153.765 148.911 153.765C146.723 153.765 144.652 154.238 142.641 155.183V155.184Z" fill="#533824"/>
<path fill-rule="evenodd" clip-rule="evenodd" d="M211.262 155.184C208.127 156.661 204.518 160.385 204.518 162.158C204.518 163.518 205.464 163.518 207.298 162.04C212.09 158.257 222.265 158.257 227.47 161.981C228.476 162.631 229.541 163.222 229.896 163.222C231.138 163.222 230.547 161.094 228.653 158.848C226.169 155.775 221.732 153.765 217.532 153.765C215.343 153.765 213.273 154.238 211.262 155.183L211.262 155.184Z" fill="#533824"/>
<path fill-rule="evenodd" clip-rule="evenodd" d="M169.439 183.437C170.09 185.978 171.982 187.988 175.295 189.584C177.957 190.884 179.318 191.18 183.222 191.18C187.126 191.18 188.487 190.884 191.149 189.584C194.462 187.988 196.354 185.979 197.005 183.437L197.301 182.137H183.222H169.143L169.439 183.437Z" fill="#AF754C"/>
<path fill-rule="evenodd" clip-rule="evenodd" d="M114.365 140.407C114.601 141.057 113.832 141.707 111.525 142.89C106.75 145.274 106.332 145.771 106.32 149.506V149.687C106.32 154.711 107.089 156.011 110.401 156.484C113.773 156.957 115.903 157.725 116.495 158.671C116.731 159.085 116.968 160.976 116.968 162.926C116.968 167.123 118.269 173.034 119.867 176.107C124.362 184.855 136.075 189.288 150.272 187.633C157.253 186.746 161.335 185.387 165.771 182.432C172.397 177.999 175.473 172.325 175.946 163.4C176.301 157.962 176.301 157.962 178.076 157.37C180.383 156.543 186.121 156.543 188.487 157.37C190.321 158.021 190.321 158.021 190.321 162.218C190.321 167.064 191.563 172.857 193.219 176.108C197.715 184.855 209.428 189.288 223.566 187.633C230.606 186.747 234.688 185.387 239.125 182.432C245.75 178 248.826 172.148 249.418 162.986C249.832 156.957 249.536 157.253 256.043 156.425C259.356 156.011 260.125 154.711 260.125 149.628C260.125 145.609 259.474 144.841 253.973 142.476L250.659 141.057L245.513 139.462L241.727 138.634C239.657 138.221 236.995 137.866 235.871 137.807C234.688 137.807 231.73 136.743 228.772 135.265C223.862 132.842 223.626 132.783 217.828 132.783C211.203 132.783 206.53 134.142 202.743 137.098C201.62 137.984 199.253 139.107 197.597 139.521C195.881 139.935 192.687 141.058 190.498 142.003C184.76 144.427 181.803 144.309 174.467 141.353C171.273 140.053 168.256 138.989 167.842 138.989C167.427 138.989 166.067 138.162 164.825 137.157C160.921 134.083 156.543 132.783 149.799 132.783C144.061 132.783 143.706 132.901 138.619 135.325C135.188 136.98 132.526 137.807 130.928 137.807C129.627 137.866 126.787 138.221 124.658 138.693L114.365 140.407ZM161.689 148.032C168.787 150.337 170.976 153.47 171.035 161.39C171.095 165.587 170.859 166.946 169.734 169.251C165.83 177.23 154.709 181.723 141.517 180.717C131.401 179.89 126.196 177.053 123.416 170.788C121.641 166.709 121.404 156.957 123.06 153.942C124.599 151.105 127.557 149.155 132.407 147.855C136.193 146.85 138.264 146.732 147.728 146.85C155.892 147.027 159.441 147.323 161.689 148.032ZM235.042 148.032C242.141 150.337 244.33 153.47 244.389 161.39C244.448 165.587 244.211 166.946 243.088 169.251C239.183 177.23 228.062 181.723 214.87 180.717C204.755 179.89 199.549 177.053 196.768 170.788C194.993 166.709 194.757 156.957 196.414 153.942C197.952 151.105 200.909 149.155 205.76 147.855C209.546 146.85 211.616 146.732 221.081 146.85C229.245 147.027 232.794 147.323 235.042 148.032Z" fill="#090E16"/>
<path fill-rule="evenodd" clip-rule="evenodd" d="M166.717 207.198C167.486 212.103 171.213 217.128 175.827 219.492C179.199 221.265 185.411 221.62 188.96 220.26C194.284 218.192 198.898 212.635 199.727 207.198H166.717Z" fill="#3E291B"/>
<path fill-rule="evenodd" clip-rule="evenodd" d="M166.212 194.877C165.311 195.204 163.1 196.268 161.298 197.291C159.496 198.272 157.448 199.337 156.752 199.623C155.319 200.196 151.101 200.359 149.75 199.909C148.972 199.663 148.808 199.745 148.808 200.523C148.808 201.791 151.47 204.164 154.377 205.556C158.145 207.356 163.059 206.988 169.201 204.41C171.572 203.712 175.002 201.841 177.76 200.891C183.835 198.745 186.939 199.977 192.42 202.324L197.211 204.41C203.354 206.988 208.268 207.356 212.036 205.556C214.984 204.164 217.727 201.669 217.523 200.605C217.441 200.196 217.072 199.95 216.745 200.032C216.417 200.114 214.902 200.155 213.346 200.155C210.889 200.114 210.152 199.909 207.203 198.395C199.218 194.222 200.365 194.549 194.468 194.549C189.759 194.549 188.816 194.713 186.196 195.654L183.206 196.718L180.258 195.654C176.654 194.385 168.996 193.976 166.212 194.877Z" fill="#2C1B18" fill-opacity="0.301961"/>
<path d="M204.093 321.217L207.892 318.131C208.772 317.416 210.066 317.549 210.782 318.428C211.498 319.308 211.364 320.601 210.484 321.316L208.645 322.809L221.993 334.046C222.873 334.761 223.006 336.054 222.291 336.933C221.885 337.432 221.293 337.691 220.696 337.691C220.24 337.691 219.782 337.541 219.401 337.231L204.093 324.402C203.613 324.012 203.335 323.427 203.335 322.809C203.335 322.191 203.613 321.606 204.093 321.217Z" fill="#7B4AE2"/>
<path d="M220.962 302.36C222.052 302.369 222.929 303.26 222.921 304.349L222.751 335.733C222.742 336.823 221.851 337.7 220.76 337.691C220.484 337.689 220.222 337.63 219.983 337.526C219.282 337.219 218.794 336.516 218.801 335.702L218.971 304.318C218.98 303.228 219.871 302.352 220.962 302.36Z" fill="#7B4AE2"/>
<path d="M229.631 323.949L231.034 322.809L226.037 318.749C225.157 318.034 225.023 316.742 225.739 315.862C226.455 314.983 227.748 314.849 228.629 315.564L235.586 321.217C236.066 321.606 236.344 322.191 236.344 322.809C236.344 323.427 236.066 324.012 235.586 324.402L232.223 327.134C231.842 327.443 231.383 327.594 230.928 327.594C230.331 327.594 229.739 327.335 229.333 326.836C228.617 325.957 228.751 324.664 229.631 323.949Z" fill="#C83267"/>
<path fill-rule="evenodd" clip-rule="evenodd" d="M142.404 264.163C124.953 265.861 109.1 272.36 95.9078 283.192C84.5563 292.474 81.3894 299.851 73.0786 310.357C90.0118 327.91 112.782 342.783 137.613 350.998C154.176 356.443 165.475 358.2 183.222 358.2C200.969 358.2 212.267 356.443 228.831 350.998C253.882 342.993 274.983 329.876 294.004 311.048C280.976 294.246 275.614 283.234 254.623 272.887C245.808 268.496 235.456 265.334 227.529 264.514L223.796 264.178L223.619 264.174L223.211 266.974C221.437 280.324 204.696 290.161 183.813 290.161C162.932 290.161 146.487 280.441 144.356 266.915C143.943 264.222 143.765 263.987 142.405 264.163H142.404Z" fill="#090E16"/>
<path fill-rule="evenodd" clip-rule="evenodd" d="M153.229 240.371L152.982 240.294C152.307 240.082 155.621 238.57 156.795 238.008C160.246 236.36 164.747 236.697 170.374 239.058C172.546 239.698 175.688 241.411 178.214 242.281C183.779 244.248 186.623 243.119 191.644 240.97L196.033 239.058C201.66 236.697 206.161 236.36 209.612 238.008C210.769 238.555 211.912 239.264 212.782 240.022L213.044 240.25C202.972 247.926 170.687 251.743 153.229 240.371Z" fill="#2C1B18" fill-opacity="0.501961"/>
<path d="M217.843 312.171L219.821 310.564C220.279 310.192 220.952 310.262 221.325 310.719C221.698 311.177 221.628 311.85 221.17 312.223L220.213 313L227.161 318.851C227.619 319.223 227.688 319.896 227.316 320.354C227.105 320.614 226.796 320.748 226.486 320.748C226.249 320.748 226.01 320.67 225.812 320.509L217.843 313.829C217.594 313.626 217.448 313.322 217.448 313C217.448 312.679 217.594 312.374 217.843 312.171Z" fill="white"/>
<path d="M226.624 302.354C227.192 302.359 227.648 302.822 227.644 303.39L227.555 319.729C227.551 320.297 227.087 320.753 226.519 320.748C226.375 320.747 226.239 320.717 226.115 320.662C225.75 320.502 225.496 320.137 225.499 319.713L225.588 303.373C225.592 302.806 226.056 302.349 226.624 302.354Z" fill="white"/>
<path d="M231.137 313.594L231.867 313L229.266 310.887C228.808 310.514 228.738 309.841 229.111 309.384C229.483 308.925 230.157 308.856 230.615 309.228L234.236 312.171C234.486 312.374 234.631 312.679 234.631 313C234.631 313.322 234.486 313.627 234.236 313.829L232.486 315.252C232.288 315.413 232.049 315.491 231.812 315.491C231.501 315.491 231.193 315.357 230.982 315.097C230.609 314.639 230.679 313.966 231.137 313.594Z" fill="#7B4AE2"/>
</g>
<defs>
<filter id="filter0_d_21_5377" x="243.786" y="130.002" width="136.789" height="136.789" filterUnits="userSpaceOnUse" color-interpolation-filters="sRGB">
<feFlood flood-opacity="0" result="BackgroundImageFix"/>
<feColorMatrix in="SourceAlpha" type="matrix" values="0 0 0 0 0 0 0 0 0 0 0 0 0 0 0 0 0 0 127 0" result="hardAlpha"/>
<feOffset dy="4"/>
<feGaussianBlur stdDeviation="25"/>
<feComposite in2="hardAlpha" operator="out"/>
<feColorMatrix type="matrix" values="0 0 0 0 0 0 0 0 0 0 0 0 0 0 0 0 0 0 0.5 0"/>
<feBlend mode="normal" in2="BackgroundImageFix" result="effect1_dropShadow_21_5377"/>
<feBlend mode="normal" in="SourceGraphic" in2="effect1_dropShadow_21_5377" result="shape"/>
</filter>
<filter id="filter1_d_21_5377" x="-5" y="83.0963" width="136.789" height="136.789" filterUnits="userSpaceOnUse" color-interpolation-filters="sRGB">
<feFlood flood-opacity="0" result="BackgroundImageFix"/>
<feColorMatrix in="SourceAlpha" type="matrix" values="0 0 0 0 0 0 0 0 0 0 0 0 0 0 0 0 0 0 127 0" result="hardAlpha"/>
<feOffset dy="4"/>
<feGaussianBlur stdDeviation="25"/>
<feComposite in2="hardAlpha" operator="out"/>
<feColorMatrix type="matrix" values="0 0 0 0 0 0 0 0 0 0 0 0 0 0 0 0 0 0 0.5 0"/>
<feBlend mode="normal" in2="BackgroundImageFix" result="effect1_dropShadow_21_5377"/>
<feBlend mode="normal" in="SourceGraphic" in2="effect1_dropShadow_21_5377" result="shape"/>
</filter>
<filter id="filter2_d_21_5377" x="-5" y="200.821" width="136.789" height="136.789" filterUnits="userSpaceOnUse" color-interpolation-filters="sRGB">
<feFlood flood-opacity="0" result="BackgroundImageFix"/>
<feColorMatrix in="SourceAlpha" type="matrix" values="0 0 0 0 0 0 0 0 0 0 0 0 0 0 0 0 0 0 127 0" result="hardAlpha"/>
<feOffset dy="4"/>
<feGaussianBlur stdDeviation="25"/>
<feComposite in2="hardAlpha" operator="out"/>
<feColorMatrix type="matrix" values="0 0 0 0 0 0 0 0 0 0 0 0 0 0 0 0 0 0 0.5 0"/>
<feBlend mode="normal" in2="BackgroundImageFix" result="effect1_dropShadow_21_5377"/>
<feBlend mode="normal" in="SourceGraphic" in2="effect1_dropShadow_21_5377" result="shape"/>
</filter>
<filter id="filter3_f_21_5377" x="-2.70068" y="0" width="362.122" height="362.122" filterUnits="userSpaceOnUse" color-interpolation-filters="sRGB">
<feFlood flood-opacity="0" result="BackgroundImageFix"/>
<feBlend mode="normal" in="SourceGraphic" in2="BackgroundImageFix" result="shape"/>
<feGaussianBlur stdDeviation="25" result="effect1_foregroundBlur_21_5377"/>
</filter>
<filter id="filter4_i_21_5377" x="73.0786" y="50.9197" width="220.926" height="311.28" filterUnits="userSpaceOnUse" color-interpolation-filters="sRGB">
<feFlood flood-opacity="0" result="BackgroundImageFix"/>
<feBlend mode="normal" in="SourceGraphic" in2="BackgroundImageFix" result="shape"/>
<feColorMatrix in="SourceAlpha" type="matrix" values="0 0 0 0 0 0 0 0 0 0 0 0 0 0 0 0 0 0 127 0" result="hardAlpha"/>
<feOffset dy="4"/>
<feGaussianBlur stdDeviation="2"/>
<feComposite in2="hardAlpha" operator="arithmetic" k2="-1" k3="1"/>
<feColorMatrix type="matrix" values="0 0 0 0 0 0 0 0 0 0 0 0 0 0 0 0 0 0 0.25 0"/>
<feBlend mode="normal" in2="shape" result="effect1_innerShadow_21_5377"/>
</filter>
<clipPath id="clip0_21_5377">
<rect width="18.3945" height="18.3945" fill="white" transform="translate(302.983 185.2)"/>
</clipPath>
<clipPath id="clip1_21_5377">
<rect width="18.3945" height="18.3945" fill="white" transform="translate(54.1973 256.018)"/>
</clipPath>
</defs>
</svg>
