<svg width="24" height="24" viewBox="0 0 24 24" fill="none" xmlns="http://www.w3.org/2000/svg">
<path d="M19.7156 3.36572L2.24056 8.28759C2.0918 8.32826 1.9592 8.4138 1.86082 8.53255C1.76243 8.65131 1.70304 8.79751 1.69074 8.95123C1.67845 9.10496 1.71383 9.25873 1.79209 9.39162C1.87035 9.52451 1.98766 9.63004 2.12806 9.69384L10.1531 13.4907C10.3103 13.5635 10.4365 13.6898 10.5093 13.847L14.3062 21.872C14.37 22.0124 14.4755 22.1297 14.6084 22.2079C14.7413 22.2862 14.8951 22.3216 15.0488 22.3093C15.2025 22.297 15.3487 22.2376 15.4675 22.1392C15.5862 22.0408 15.6718 21.9082 15.7124 21.7595L20.6343 4.28447C20.6716 4.15695 20.6739 4.02174 20.641 3.89302C20.6081 3.7643 20.5411 3.64681 20.4472 3.55286C20.3532 3.45891 20.2357 3.39197 20.107 3.35904C19.9783 3.32611 19.8431 3.32842 19.7156 3.36572V3.36572Z" stroke="#7B4AE2" stroke-opacity="0.5" stroke-linecap="round" stroke-linejoin="round"/>
<path d="M10.3969 13.6032L14.6344 9.36572" stroke="#7B4AE2" stroke-opacity="0.5" stroke-linecap="round" stroke-linejoin="round"/>
</svg>
