<svg width="15" height="18" viewBox="0 0 15 18" fill="none" xmlns="http://www.w3.org/2000/svg">
<path d="M14.0095 8.43328L2.01676 1.09927C1.9158 1.037 1.80006 1.00279 1.68147 1.00016C1.56288 0.99754 1.44574 1.0266 1.34213 1.08435C1.23851 1.1421 1.15219 1.22645 1.09205 1.32869C1.0319 1.43094 1.00013 1.54737 1 1.66599V16.334C1.00013 16.4526 1.0319 16.5691 1.09205 16.6713C1.15219 16.7735 1.23851 16.8579 1.34213 16.9156C1.44574 16.9734 1.56288 17.0025 1.68147 16.9998C1.80006 16.9972 1.9158 16.963 2.01676 16.9007L14.0095 9.56672C14.108 9.50848 14.1896 9.42559 14.2463 9.32622C14.303 9.22684 14.3328 9.11441 14.3328 9C14.3328 8.88559 14.303 8.77316 14.2463 8.67378C14.1896 8.57441 14.108 8.49152 14.0095 8.43328V8.43328Z" stroke="#7B4AE2" stroke-opacity="0.5" stroke-linecap="round" stroke-linejoin="round"/>
</svg>
