<svg width="20" height="20" viewBox="0 0 20 20" fill="none" xmlns="http://www.w3.org/2000/svg">
<path d="M8.05427 11.6375H2.98308C2.82485 11.6375 2.6731 11.5746 2.56122 11.4627C2.44933 11.3509 2.38647 11.1991 2.38647 11.0409V6.268C2.38647 6.10977 2.44933 5.95802 2.56122 5.84613C2.6731 5.73424 2.82485 5.67139 2.98308 5.67139H7.45766C7.61589 5.67139 7.76764 5.73424 7.87953 5.84613C7.99141 5.95802 8.05427 6.10977 8.05427 6.268V12.8307C8.05427 13.6219 7.73999 14.3806 7.18056 14.94C6.62113 15.4995 5.86237 15.8138 5.07122 15.8138" stroke="#7B4AE2" stroke-opacity="0.5" stroke-linecap="round" stroke-linejoin="round"/>
<path d="M16.705 11.6375H11.6338C11.4756 11.6375 11.3239 11.5746 11.212 11.4627C11.1001 11.3509 11.0372 11.1991 11.0372 11.0409V6.268C11.0372 6.10977 11.1001 5.95802 11.212 5.84613C11.3239 5.73424 11.4756 5.67139 11.6338 5.67139H16.1084C16.2666 5.67139 16.4184 5.73424 16.5303 5.84613C16.6422 5.95802 16.705 6.10977 16.705 6.268V12.8307C16.705 13.6219 16.3907 14.3806 15.8313 14.94C15.2719 15.4995 14.5131 15.8138 13.722 15.8138" stroke="#7B4AE2" stroke-opacity="0.5" stroke-linecap="round" stroke-linejoin="round"/>
</svg>
